<svg version="1.1" xmlns="http://www.w3.org/2000/svg" x="0" y="0" viewBox="0 0 260.3 76.3" xml:space="preserve"><style type="text/css">
  .st0{fill:#B2B2B2;}
  .st1{fill:#3C3C3B;}
 +</style><path class="st0" d="M4.1 31.2v-27h17.4V5H4.9v12H19v0.8H4.9v13.5H4.1z"/><path class="st0" d="M26.7 31.2v-27h11c1.1 0 2.1 0.2 3 0.7 0.9 0.5 1.7 1.1 2.4 1.9 0.7 0.8 1.2 1.6 1.6 2.6 0.4 1 0.6 2 0.6 3 0 1-0.2 2-0.5 3S44 17.2 43.4 18c-0.6 0.7-1.3 1.4-2.2 1.8 -0.8 0.5-1.8 0.7-2.8 0.8l6.8 10.6h-0.9l-6.8-10.6h-10v10.6H26.7zM27.5 19.9H38c1 0 1.9-0.2 2.7-0.6 0.8-0.4 1.5-1 2.1-1.7 0.6-0.7 1-1.5 1.3-2.4 0.3-0.9 0.5-1.8 0.5-2.7 0-1-0.2-1.9-0.5-2.8 -0.4-0.9-0.8-1.7-1.5-2.4 -0.6-0.7-1.3-1.2-2.2-1.7S38.7 5 37.7 5H27.5V19.9z"/><path class="st0" d="M69.1 30.5v0.8H51.4v-27h17.4V5H52.2v12h14.6v0.8H52.2v12.7H69.1z"/><path class="st0" d="M90 7.8c-1.1-1.2-2.2-2-3.3-2.4 -1.2-0.4-2.5-0.6-4.1-0.6 -1.5 0-2.9 0.2-4 0.5 -1.1 0.3-2 0.7-2.7 1.3 -0.7 0.6-1.2 1.2-1.6 2 -0.3 0.8-0.5 1.7-0.5 2.7 0 1 0.2 1.8 0.5 2.4 0.3 0.6 0.8 1.2 1.5 1.6 0.7 0.4 1.6 0.8 2.6 1.1 1.1 0.3 2.4 0.6 3.9 0.9 1.5 0.3 2.9 0.6 4.1 1 1.2 0.4 2.2 0.8 3.1 1.3 0.8 0.5 1.5 1.2 2 2 0.5 0.8 0.7 1.8 0.7 3 0 2.2-0.8 3.9-2.5 5.1 -1.7 1.2-4 1.7-7 1.7 -2.2 0-4.1-0.3-5.8-1 -1.7-0.7-3.2-1.7-4.7-3.2l0.6-0.5c1.4 1.4 2.9 2.4 4.5 3.1 1.6 0.6 3.4 1 5.5 1 2.7 0 4.8-0.5 6.4-1.5 1.6-1 2.3-2.5 2.3-4.5 0-1-0.2-1.9-0.5-2.6 -0.4-0.7-0.9-1.3-1.6-1.8 -0.7-0.5-1.7-0.9-2.8-1.3 -1.1-0.4-2.5-0.7-4-1 -1.5-0.3-2.8-0.6-4-0.9 -1.2-0.3-2.1-0.7-2.9-1.2 -0.8-0.5-1.4-1.1-1.8-1.9 -0.4-0.7-0.6-1.7-0.6-2.8 0-1.2 0.2-2.2 0.7-3.1 0.4-0.9 1.1-1.7 1.9-2.3 0.8-0.6 1.8-1.1 3-1.4C79.8 4.2 81.1 4 82.5 4c1.7 0 3.2 0.2 4.5 0.7 1.3 0.5 2.5 1.3 3.5 2.5L90 7.8z"/><path class="st0" d="M117.8 4.2v27h-0.8V17.8H98.3v13.4h-0.8v-27h0.8V17h18.7V4.2H117.8z"/><path class="st1" d="M134.7 31.2v-27h5.2v22.4h13.8v4.6H134.7z"/><path class="st1" d="M157.1 31.2V4.3h5.2v26.9H157.1z"/><path class="st1" d="M170.6 4.2l7.3 20.4 7.2-20.4h5.5l-10.5 27h-4.4l-10.6-27H170.6z"/><path class="st1" d="M193.5 31.2V4.3h5.2v26.9H193.5z"/><path class="st1" d="M209.6 13.9v17.3h-5.2v-27h4.1l14.1 17.7V4.3h5.2v26.9h-4.3L209.6 13.9z"/><path class="st1" d="M251.5 28.2c-2.1 2.2-4.5 3.2-7.2 3.2 -1.7 0-3.3-0.4-4.9-1.1 -1.5-0.8-2.8-1.8-4-3.1s-2-2.8-2.7-4.4c-0.6-1.7-1-3.4-1-5.2 0-1.8 0.3-3.6 1-5.2 0.6-1.6 1.5-3.1 2.7-4.3 1.2-1.2 2.5-2.2 4.1-2.9 1.6-0.7 3.2-1.1 5.1-1.1 2.5 0 4.6 0.5 6.3 1.6 1.7 1.1 3.1 2.5 4 4.3l-3.9 2.9c-0.7-1.3-1.6-2.4-2.7-3.1 -1.2-0.7-2.4-1.1-3.8-1.1 -1.1 0-2.1 0.2-3 0.7s-1.7 1.1-2.3 2c-0.6 0.8-1.1 1.8-1.5 2.9 -0.4 1.1-0.5 2.2-0.5 3.5 0 1.3 0.2 2.5 0.6 3.6 0.4 1.1 0.9 2.1 1.6 2.9 0.7 0.8 1.5 1.5 2.4 1.9 0.9 0.5 1.9 0.7 3.1 0.7 2.5 0 4.7-1.2 6.7-3.7v-1.9H246v-3.8h9.8v13.9h-4.3V28.2z"/><path class="st1" d="M101.3 42.4c-0.4-0.4-0.8-0.7-1.4-1 -0.6-0.3-1.3-0.4-2.1-0.4 -1.1 0-1.9 0.2-2.5 0.6 -0.5 0.4-0.8 1-0.8 1.7 0 0.4 0.1 0.7 0.2 0.9 0.1 0.2 0.4 0.5 0.6 0.6s0.7 0.3 1.1 0.5c0.5 0.1 1 0.3 1.6 0.4 0.7 0.1 1.3 0.3 1.8 0.5 0.5 0.2 1 0.4 1.4 0.7 0.4 0.3 0.7 0.6 0.9 1 0.2 0.4 0.3 0.9 0.3 1.4 0 0.6-0.1 1.1-0.3 1.5 -0.2 0.4-0.5 0.8-1 1.1 -0.4 0.3-0.9 0.5-1.5 0.6s-1.2 0.2-1.9 0.2c-2 0-3.7-0.6-5.1-1.9l0.6-1c0.2 0.2 0.5 0.5 0.8 0.7s0.7 0.4 1.1 0.6c0.4 0.2 0.8 0.3 1.3 0.4 0.4 0.1 0.9 0.1 1.4 0.1 1 0 1.8-0.2 2.4-0.5 0.6-0.4 0.9-0.9 0.9-1.7 0-0.4-0.1-0.7-0.2-1 -0.2-0.3-0.4-0.5-0.7-0.7 -0.3-0.2-0.7-0.4-1.2-0.5 -0.5-0.1-1-0.3-1.7-0.4 -0.7-0.2-1.3-0.3-1.8-0.5 -0.5-0.2-0.9-0.4-1.3-0.6s-0.6-0.6-0.8-0.9c-0.2-0.4-0.3-0.8-0.3-1.3 0-0.6 0.1-1.1 0.3-1.6 0.2-0.5 0.5-0.8 0.9-1.2 0.4-0.3 0.9-0.5 1.4-0.7 0.6-0.2 1.2-0.2 1.8-0.2 0.9 0 1.6 0.1 2.3 0.4 0.7 0.3 1.3 0.6 1.8 1.1L101.3 42.4z"/><path class="st1" d="M113.3 51.7v1.1h-8.6V40h8.4v1.1H106v4.6h6.2v1.1H106v4.9H113.3z"/><path class="st1" d="M115.7 52.8V40h5.4c0.6 0 1.1 0.1 1.5 0.4 0.5 0.2 0.9 0.5 1.2 0.9 0.3 0.4 0.6 0.8 0.8 1.3 0.2 0.5 0.3 1 0.3 1.5 0 0.5-0.1 0.9-0.2 1.3 -0.1 0.4-0.3 0.8-0.6 1.2 -0.2 0.3-0.5 0.6-0.9 0.9 -0.3 0.2-0.7 0.4-1.2 0.5l3.1 4.9h-1.4l-3-4.7H117v4.7H115.7zM117 47h4.2c0.4 0 0.7-0.1 1-0.2 0.3-0.2 0.6-0.4 0.8-0.7 0.2-0.3 0.4-0.6 0.5-0.9 0.1-0.3 0.2-0.7 0.2-1.1 0-0.4-0.1-0.8-0.2-1.1 -0.1-0.4-0.3-0.7-0.6-0.9 -0.2-0.3-0.5-0.5-0.8-0.6 -0.3-0.2-0.7-0.2-1-0.2H117V47z"/><path class="st1" d="M127.1 40l4.6 11.2 4.6-11.2h1.3l-5.3 12.8h-1.1L125.8 40H127.1z"/><path class="st1" d="M139.4 52.8V40h1.3v12.8H139.4z"/><path class="st1" d="M143 46.3c0-0.8 0.1-1.5 0.4-2.3 0.3-0.8 0.7-1.4 1.2-2 0.5-0.6 1.2-1.1 1.9-1.5s1.6-0.6 2.6-0.6c1.1 0 2.1 0.3 2.9 0.8 0.8 0.5 1.4 1.2 1.8 2l-1 0.6c-0.2-0.4-0.5-0.8-0.7-1.1s-0.6-0.5-0.9-0.7c-0.3-0.2-0.7-0.3-1-0.4 -0.4-0.1-0.7-0.1-1.1-0.1 -0.8 0-1.4 0.2-2 0.5 -0.6 0.3-1.1 0.7-1.5 1.2 -0.4 0.5-0.7 1.1-0.9 1.7s-0.3 1.3-0.3 1.9c0 0.7 0.1 1.4 0.4 2s0.6 1.2 1 1.7c0.4 0.5 0.9 0.9 1.5 1.2s1.2 0.4 1.9 0.4c0.4 0 0.7 0 1.1-0.1s0.7-0.2 1.1-0.4c0.4-0.2 0.7-0.4 1-0.7 0.3-0.3 0.6-0.7 0.8-1.1l1 0.5c-0.2 0.5-0.5 0.9-0.9 1.3s-0.8 0.7-1.2 0.9 -0.9 0.4-1.4 0.6c-0.5 0.1-1 0.2-1.5 0.2 -0.9 0-1.7-0.2-2.4-0.6 -0.7-0.4-1.4-0.9-1.9-1.5s-0.9-1.3-1.2-2.1C143.1 48 143 47.2 143 46.3z"/><path class="st1" d="M164.8 51.7v1.1h-8.6V40h8.4v1.1h-7.2v4.6h6.2v1.1h-6.2v4.9H164.8z"/><polygon class="st1" points="130 72.5 8.9 58.7 9.1 57.7 130.1 71.5 130.3 71.5 251.3 57.7 251.4 58.7 130.3 72.5 "/></svg>
